<mxfile host="app.diagrams.net" agent="Mozilla/5.0 (Windows NT 10.0; Win64; x64) AppleWebKit/537.36 (KHTML, like Gecko) Chrome/128.0.0.0 Safari/537.36" version="24.7.16">
  <diagram name="Página-1" id="p_zmK6VeMFDbX9s5x34h">
    <mxGraphModel dx="2234" dy="780" grid="0" gridSize="10" guides="1" tooltips="1" connect="1" arrows="1" fold="1" page="0" pageScale="1" pageWidth="827" pageHeight="1169" math="0" shadow="0">
      <root>
        <mxCell id="0" />
        <mxCell id="1" parent="0" />
        <mxCell id="RJy_N554QlW6TNtINCdK-5" style="edgeStyle=orthogonalEdgeStyle;rounded=0;orthogonalLoop=1;jettySize=auto;html=1;" edge="1" parent="1" source="zMpdTV3erXOvxBbBsKeZ-1" target="zMpdTV3erXOvxBbBsKeZ-5">
          <mxGeometry relative="1" as="geometry" />
        </mxCell>
        <mxCell id="zMpdTV3erXOvxBbBsKeZ-1" value="Agenda App" style="swimlane;fontStyle=1;align=center;verticalAlign=top;childLayout=stackLayout;horizontal=1;startSize=26;horizontalStack=0;resizeParent=1;resizeParentMax=0;resizeLast=0;collapsible=1;marginBottom=0;whiteSpace=wrap;html=1;" parent="1" vertex="1">
          <mxGeometry x="-528" y="240" width="328" height="125" as="geometry" />
        </mxCell>
        <mxCell id="zMpdTV3erXOvxBbBsKeZ-2" value="+ menuprincipal MenuManager" style="text;strokeColor=none;fillColor=none;align=left;verticalAlign=top;spacingLeft=4;spacingRight=4;overflow=hidden;rotatable=0;points=[[0,0.5],[1,0.5]];portConstraint=eastwest;whiteSpace=wrap;html=1;" parent="zMpdTV3erXOvxBbBsKeZ-1" vertex="1">
          <mxGeometry y="26" width="328" height="26" as="geometry" />
        </mxCell>
        <mxCell id="zMpdTV3erXOvxBbBsKeZ-3" value="" style="line;strokeWidth=1;fillColor=none;align=left;verticalAlign=middle;spacingTop=-1;spacingLeft=3;spacingRight=3;rotatable=0;labelPosition=right;points=[];portConstraint=eastwest;strokeColor=inherit;" parent="zMpdTV3erXOvxBbBsKeZ-1" vertex="1">
          <mxGeometry y="52" width="328" height="8" as="geometry" />
        </mxCell>
        <mxCell id="zMpdTV3erXOvxBbBsKeZ-4" value="+ main(String[] args)&lt;div&gt;- void preparaMenu()&lt;/div&gt;&lt;div&gt;+ void adicionaContato()&lt;/div&gt;" style="text;strokeColor=none;fillColor=none;align=left;verticalAlign=top;spacingLeft=4;spacingRight=4;overflow=hidden;rotatable=0;points=[[0,0.5],[1,0.5]];portConstraint=eastwest;whiteSpace=wrap;html=1;" parent="zMpdTV3erXOvxBbBsKeZ-1" vertex="1">
          <mxGeometry y="60" width="328" height="65" as="geometry" />
        </mxCell>
        <mxCell id="RJy_N554QlW6TNtINCdK-6" style="edgeStyle=orthogonalEdgeStyle;rounded=0;orthogonalLoop=1;jettySize=auto;html=1;" edge="1" parent="1" source="zMpdTV3erXOvxBbBsKeZ-5" target="zMpdTV3erXOvxBbBsKeZ-11">
          <mxGeometry relative="1" as="geometry" />
        </mxCell>
        <mxCell id="zMpdTV3erXOvxBbBsKeZ-5" value="Menu Manager" style="swimlane;fontStyle=1;align=center;verticalAlign=top;childLayout=stackLayout;horizontal=1;startSize=26;horizontalStack=0;resizeParent=1;resizeParentMax=0;resizeLast=0;collapsible=1;marginBottom=0;whiteSpace=wrap;html=1;" parent="1" vertex="1">
          <mxGeometry x="-702" y="469" width="676" height="370" as="geometry" />
        </mxCell>
        <mxCell id="zMpdTV3erXOvxBbBsKeZ-6" value="&lt;p class=&quot;MsoNormal&quot;&gt;&lt;span style=&quot;font-size:14.0pt;line-height:107%&quot;&gt;- String header&lt;/span&gt;&lt;/p&gt;&lt;p class=&quot;MsoNormal&quot;&gt;&lt;span style=&quot;font-size:14.0pt;line-height:107%&quot;&gt;- String footer&lt;/span&gt;&lt;/p&gt;&lt;span style=&quot;font-size:14.0pt;line-height:107%;font-family:&amp;quot;Calibri&amp;quot;,sans-serif;&lt;br/&gt;mso-ascii-theme-font:minor-latin;mso-fareast-font-family:Calibri;mso-fareast-theme-font:&lt;br/&gt;minor-latin;mso-hansi-theme-font:minor-latin;mso-bidi-font-family:&amp;quot;Times New Roman&amp;quot;;&lt;br/&gt;mso-bidi-theme-font:minor-bidi;mso-ansi-language:PT-BR;mso-fareast-language:&lt;br/&gt;EN-US;mso-bidi-language:AR-SA&quot;&gt;- List&amp;lt;MenuOption&amp;gt; opcoesMenu&lt;/span&gt;" style="text;strokeColor=none;fillColor=none;align=left;verticalAlign=top;spacingLeft=4;spacingRight=4;overflow=hidden;rotatable=0;points=[[0,0.5],[1,0.5]];portConstraint=eastwest;whiteSpace=wrap;html=1;" parent="zMpdTV3erXOvxBbBsKeZ-5" vertex="1">
          <mxGeometry y="26" width="676" height="127" as="geometry" />
        </mxCell>
        <mxCell id="zMpdTV3erXOvxBbBsKeZ-7" value="" style="line;strokeWidth=1;fillColor=none;align=left;verticalAlign=middle;spacingTop=-1;spacingLeft=3;spacingRight=3;rotatable=0;labelPosition=right;points=[];portConstraint=eastwest;strokeColor=inherit;" parent="zMpdTV3erXOvxBbBsKeZ-5" vertex="1">
          <mxGeometry y="153" width="676" height="8" as="geometry" />
        </mxCell>
        <mxCell id="zMpdTV3erXOvxBbBsKeZ-8" value="&lt;p class=&quot;MsoNormal&quot;&gt;&lt;span style=&quot;font-size:14.0pt;line-height:107%&quot;&gt;+ MenuManager()&lt;/span&gt;&lt;/p&gt;&lt;p class=&quot;MsoNormal&quot;&gt;&lt;span style=&quot;font-size:14.0pt;line-height:107%&quot;&gt;+ MenuManager (String header, String footer)&lt;/span&gt;&lt;/p&gt;&lt;p class=&quot;MsoNormal&quot;&gt;&lt;span style=&quot;font-size:14.0pt;line-height:107%&quot;&gt;+ MenuManager (String header, String footer, List&amp;lt;MenuOption&amp;gt; opcoesMenu&lt;/span&gt;&lt;/p&gt;&lt;p class=&quot;MsoNormal&quot;&gt;&lt;span style=&quot;font-size:14.0pt;line-height:107%&quot;&gt;+ char showMenu ()&lt;/span&gt;&lt;/p&gt;&lt;p class=&quot;MsoNormal&quot;&gt;&lt;span style=&quot;font-size:14.0pt;line-height:107%&quot;&gt;+&lt;/span&gt; &lt;span style=&quot;font-size:14.0pt;line-height:107%&quot;&gt;boolean isOpcaoValida(char opcaoDigitada)&lt;/span&gt;&lt;/p&gt;&lt;span style=&quot;font-size:14.0pt;line-height:107%;font-family:&amp;quot;Calibri&amp;quot;,sans-serif;&lt;br/&gt;mso-ascii-theme-font:minor-latin;mso-fareast-font-family:Calibri;mso-fareast-theme-font:&lt;br/&gt;minor-latin;mso-hansi-theme-font:minor-latin;mso-bidi-font-family:&amp;quot;Times New Roman&amp;quot;;&lt;br/&gt;mso-bidi-theme-font:minor-bidi;mso-ansi-language:PT-BR;mso-fareast-language:&lt;br/&gt;EN-US;mso-bidi-language:AR-SA&quot;&gt;+ void addOpcao(MenuOption itemMenu)&lt;/span&gt;" style="text;strokeColor=none;fillColor=none;align=left;verticalAlign=top;spacingLeft=4;spacingRight=4;overflow=hidden;rotatable=0;points=[[0,0.5],[1,0.5]];portConstraint=eastwest;whiteSpace=wrap;html=1;" parent="zMpdTV3erXOvxBbBsKeZ-5" vertex="1">
          <mxGeometry y="161" width="676" height="209" as="geometry" />
        </mxCell>
        <mxCell id="zMpdTV3erXOvxBbBsKeZ-9" value="Menu Option" style="swimlane;fontStyle=0;childLayout=stackLayout;horizontal=1;startSize=26;fillColor=none;horizontalStack=0;resizeParent=1;resizeParentMax=0;resizeLast=0;collapsible=1;marginBottom=0;whiteSpace=wrap;html=1;" parent="1" vertex="1">
          <mxGeometry x="82" y="440" width="587" height="323" as="geometry" />
        </mxCell>
        <mxCell id="RJy_N554QlW6TNtINCdK-4" value="" style="endArrow=none;html=1;rounded=0;" edge="1" parent="zMpdTV3erXOvxBbBsKeZ-9" target="zMpdTV3erXOvxBbBsKeZ-10">
          <mxGeometry width="50" height="50" relative="1" as="geometry">
            <mxPoint x="2" y="108" as="sourcePoint" />
            <mxPoint x="52" y="58" as="targetPoint" />
            <Array as="points">
              <mxPoint x="434" y="108" />
              <mxPoint x="592" y="108" />
            </Array>
          </mxGeometry>
        </mxCell>
        <mxCell id="zMpdTV3erXOvxBbBsKeZ-10" value="&lt;p class=&quot;MsoNormal&quot;&gt;&lt;span style=&quot;font-size:14.0pt;line-height:107%&quot;&gt;- char opção&lt;/span&gt;&lt;/p&gt;&lt;span style=&quot;font-size:14.0pt;line-height:107%;font-family:&amp;quot;Calibri&amp;quot;,sans-serif;&lt;br/&gt;mso-ascii-theme-font:minor-latin;mso-fareast-font-family:Calibri;mso-fareast-theme-font:&lt;br/&gt;minor-latin;mso-hansi-theme-font:minor-latin;mso-bidi-font-family:&amp;quot;Times New Roman&amp;quot;;&lt;br/&gt;mso-bidi-theme-font:minor-bidi;mso-ansi-language:PT-BR;mso-fareast-language:&lt;br/&gt;EN-US;mso-bidi-language:AR-SA&quot;&gt;- String textoOpcao&lt;/span&gt;" style="text;strokeColor=none;fillColor=none;align=left;verticalAlign=top;spacingLeft=4;spacingRight=4;overflow=hidden;rotatable=0;points=[[0,0.5],[1,0.5]];portConstraint=eastwest;whiteSpace=wrap;html=1;" parent="zMpdTV3erXOvxBbBsKeZ-9" vertex="1">
          <mxGeometry y="26" width="587" height="80" as="geometry" />
        </mxCell>
        <mxCell id="zMpdTV3erXOvxBbBsKeZ-11" value="&lt;p class=&quot;MsoNormal&quot;&gt;&lt;span style=&quot;font-size:14.0pt;line-height:107%&quot;&gt;+&lt;/span&gt; &lt;span style=&quot;font-size:14.0pt;line-height:107%&quot;&gt;MenuOption(char opcao, String textoOpcao)&lt;/span&gt;&lt;/p&gt;&lt;p class=&quot;MsoNormal&quot;&gt;&lt;span style=&quot;font-size:14.0pt;line-height:107%&quot;&gt;+ char getOpcao()&lt;/span&gt;&lt;/p&gt;&lt;p class=&quot;MsoNormal&quot;&gt;&lt;span style=&quot;font-size:14.0pt;line-height:107%&quot;&gt;+ void setOpcao(char Opcao)&lt;/span&gt;&lt;/p&gt;&lt;p class=&quot;MsoNormal&quot;&gt;&lt;span style=&quot;font-size:14.0pt;line-height:107%&quot;&gt;+ String getTextoOpcao()&lt;/span&gt;&lt;/p&gt;&lt;p class=&quot;MsoNormal&quot;&gt;&lt;span style=&quot;font-size:14.0pt;line-height:107%&quot;&gt;+ void setTextoOpcao(String textoOpcao)&lt;/span&gt;&lt;/p&gt;&lt;span style=&quot;font-size:14.0pt;line-height:107%;font-family:&amp;quot;Calibri&amp;quot;,sans-serif;&lt;br/&gt;mso-ascii-theme-font:minor-latin;mso-fareast-font-family:Calibri;mso-fareast-theme-font:&lt;br/&gt;minor-latin;mso-hansi-theme-font:minor-latin;mso-bidi-font-family:&amp;quot;Times New Roman&amp;quot;;&lt;br/&gt;mso-bidi-theme-font:minor-bidi;mso-ansi-language:PT-BR;mso-fareast-language:&lt;br/&gt;EN-US;mso-bidi-language:AR-SA&quot;&gt;+ String toString()&lt;/span&gt;" style="text;strokeColor=none;fillColor=none;align=left;verticalAlign=top;spacingLeft=4;spacingRight=4;overflow=hidden;rotatable=0;points=[[0,0.5],[1,0.5]];portConstraint=eastwest;whiteSpace=wrap;html=1;" parent="zMpdTV3erXOvxBbBsKeZ-9" vertex="1">
          <mxGeometry y="106" width="587" height="217" as="geometry" />
        </mxCell>
      </root>
    </mxGraphModel>
  </diagram>
</mxfile>
